<svg id="Layer_1" data-name="Layer 1" xmlns="http://www.w3.org/2000/svg" viewBox="0 0 279.58 293.97"><defs><style>.cls-1,.cls-2,.cls-3{fill:#231f20;}.cls-2{stroke:#fff;}.cls-2,.cls-3{stroke-miterlimit:10;}.cls-3{stroke:#231f20;stroke-width:4px;}</style></defs><title>Favicon-1</title><path class="cls-1" d="M174.05,396.75c0,2.13-1.32,3.7-1.62,5.68-.56,3.79,3.91,9.21,5.23,12.94l.36,1c0-.36,0-.71,0-1.07.36,1.5.77,3,1.21,4.46q1.36,3.92,2.75,7.84a85.54,85.54,0,0,0,38.47,43.11,106.61,106.61,0,0,0,144.47-42.59,132.16,132.16,0,0,0,12.18-31.22c-.32-6-.74-12-1.34-18-.33-3.35.14-7.18-.88-10.42a28,28,0,0,0-1.92-4.25c0,.59,0,1.17,0,1.75a85.79,85.79,0,0,0-42.43-55.41,106.62,106.62,0,0,0-144.47,42.59,131.69,131.69,0,0,0-13.47,36.93C173.05,392.35,174.05,394.46,174.05,396.75Zm152.66-79.11A78.09,78.09,0,0,1,357.9,423.45a61.67,61.67,0,0,1-83.56,24.63A48.16,48.16,0,0,1,253.6,426a46.17,46.17,0,0,0,28.4-3.38c.48.29,1,.59,1.46.86a30.91,30.91,0,0,0,41.88-12.34,37.64,37.64,0,0,0-15-51c-1-.56-2.08-1.06-3.13-1.54a56.26,56.26,0,0,0-26.72-32.32,69.39,69.39,0,0,0-53.16-5.53A98.56,98.56,0,0,1,326.71,317.64Zm-85.21,94.7a29.62,29.62,0,0,1-8.83-38.25,22.88,22.88,0,0,1,28.17-10.45,45.59,45.59,0,0,0-12.91,14.85A56.17,56.17,0,0,0,241.5,412.34Zm13.45-30a37.81,37.81,0,0,1,13.13-14,17.51,17.51,0,0,1,2.61,20.32l2.08,1.13a25.55,25.55,0,0,0,2.7,26.79,38,38,0,0,1-25.05.21A48.3,48.3,0,0,1,255,382.32ZM309.48,369a29.62,29.62,0,0,1,8.83,38.25,22.88,22.88,0,0,1-28.16,10.46,45.82,45.82,0,0,0,12.9-14.86A56.17,56.17,0,0,0,309.48,369ZM296,399a37.81,37.81,0,0,1-13.13,14,17.52,17.52,0,0,1-2.61-20.31l-2.09-1.14a25.53,25.53,0,0,0-2.69-26.79,38,38,0,0,1,25.05-.21A48.3,48.3,0,0,1,296,399Zm-19.39-65.76a48.2,48.2,0,0,1,20.75,22.14A46.12,46.12,0,0,0,269,358.78c-.48-.29-1-.59-1.46-.86a30.91,30.91,0,0,0-41.88,12.34,37.64,37.64,0,0,0,15,51c1,.56,2.08,1.06,3.13,1.54a56.3,56.3,0,0,0,26.72,32.32,69.31,69.31,0,0,0,53.16,5.53,98.56,98.56,0,0,1-99.41,3.07A78.09,78.09,0,0,1,193.08,357.9,61.67,61.67,0,0,1,276.64,333.27Z" transform="translate(-135.72 -246.61)"/><path class="cls-2" d="M296,399a37.81,37.81,0,0,1-13.13,14,17.52,17.52,0,0,1-2.61-20.31l-2.09-1.14a25.53,25.53,0,0,0-2.69-26.79,38,38,0,0,1,25.05-.21A48.3,48.3,0,0,1,296,399Z" transform="translate(-135.72 -246.61)"/><path class="cls-2" d="M275.47,416.6a38,38,0,0,1-25.05.21A48.3,48.3,0,0,1,255,382.32a37.81,37.81,0,0,1,13.13-14,17.51,17.51,0,0,1,2.61,20.32l2.08,1.13A25.55,25.55,0,0,0,275.47,416.6Z" transform="translate(-135.72 -246.61)"/><path class="cls-2" d="M357.9,423.45a61.67,61.67,0,0,1-83.56,24.63A48.16,48.16,0,0,1,253.6,426a46.17,46.17,0,0,0,28.4-3.38c.48.29,1,.59,1.46.86a30.91,30.91,0,0,0,41.88-12.34,37.64,37.64,0,0,0-15-51c-1-.56-2.08-1.06-3.13-1.54a56.26,56.26,0,0,0-26.72-32.32,69.39,69.39,0,0,0-53.16-5.53,98.56,98.56,0,0,1,99.41-3.07A78.09,78.09,0,0,1,357.9,423.45Z" transform="translate(-135.72 -246.61)"/><path class="cls-3" d="M398.44,393.6,413,348.94l-38-27.6-14.51-44.66H313.5l-38-27.6-38,27.6h-47l-14.51,44.66-38,27.6,14.51,44.66-14.51,44.65,38,27.6,14.51,44.66h47l38,27.6,38-27.6h46.95L375,465.85l38-27.6ZM409.59,350l-12.65,39-20.48-63ZM395.44,393.6l-22.91,70.49-60,43.56H238.45l-60-43.56L155.58,393.6l22.91-70.5,60-43.56h74.12l60,43.56ZM358.38,279.54,371,318.48l-53.6-38.94Zm-82.87-26.93,33.13,24.07H242.38Zm-82.87,26.93h41L180,318.48ZM141.43,350,174.56,326l-20.48,63Zm0,87.13,12.65-38.94,20.48,63Zm51.21,70.49L180,468.71l53.61,38.94Zm82.87,26.93-33.13-24.07h66.26Zm82.87-26.93H317.43L371,468.71Zm38.56-109.43,12.65,38.94-33.13,24.07Z" transform="translate(-135.72 -246.61)"/></svg>