<?xml version="1.0" encoding="utf-8"?>
<!-- Generator: Adobe Illustrator 24.0.0, SVG Export Plug-In . SVG Version: 6.00 Build 0)  -->
<svg version="1.1" id="Layer_1" xmlns="http://www.w3.org/2000/svg" xmlns:xlink="http://www.w3.org/1999/xlink" x="0px" y="0px"
	 viewBox="0 0 595.28 841.89" style="enable-background:new 0 0 595.28 841.89;" xml:space="preserve">
<style type="text/css">
	.st0{stroke:#000000;stroke-width:8;stroke-miterlimit:10;}
	.st1{fill:none;stroke:#000000;stroke-width:11;stroke-miterlimit:10;}
</style>
<path class="st0" d="M468.51,405.49l18.4-56.63l-48.17-35l-18.4-56.63H360.8l-48.17-35l-48.17,35h-59.54l-18.4,56.63l-48.17,35
	l18.4,56.63l-18.4,56.63l48.17,35l18.4,56.63h59.54l48.17,35l48.17-35h59.54l18.4-56.63l48.17-35L468.51,405.49z M482.66,350.24
	l-16.05,49.39l-25.97-79.91L482.66,350.24z M464.71,405.49l-29.04,89.39l-76.04,55.25h-93.99l-76.04-55.25l-29.04-89.39l29.05-89.39
	l76.04-55.25h93.99l76.04,55.25L464.71,405.49z M417.71,260.85l16.05,49.39l-67.98-49.39H417.71z M312.63,226.7l42.01,30.52h-84.03
	L312.63,226.7z M207.54,260.85h51.93l-67.98,49.39L207.54,260.85z M142.59,350.24l42.01-30.52l-25.97,79.91L142.59,350.24z
	 M142.59,460.73l16.05-49.39l25.97,79.91L142.59,460.73z M207.54,550.13l-16.05-49.39l67.98,49.39H207.54z M312.63,584.27
	l-42.01-30.52h84.02L312.63,584.27z M417.71,550.13h-51.93l67.98-49.39L417.71,550.13z M466.61,411.35l16.05,49.39l-42.01,30.52
	L466.61,411.35z"/>
<circle class="st1" cx="312.63" cy="405.48" r="253.63"/>
</svg>
